<svg id="svg" version="1.1" xmlns="http://www.w3.org/2000/svg" xmlns:xlink="http://www.w3.org/1999/xlink" width="400" height="400.9732360097324" viewBox="0, 0, 400,400.9732360097324"><g id="svgg"><path id="path0" d="M60.000 19.212 C 44.545 19.505,46.090 19.293,40.401 21.898 C 29.606 26.841,22.638 38.230,21.984 52.000 C 21.521 61.746,21.536 289.356,22.002 329.400 L 22.383 362.200 23.402 365.304 C 26.426 374.520,34.584 382.727,43.600 385.622 C 46.199 386.457,355.304 386.499,357.800 385.666 C 367.747 382.343,378.376 368.933,379.231 358.631 C 379.668 353.360,379.654 69.074,379.216 55.000 C 378.956 46.650,378.724 43.701,378.193 42.000 C 374.963 31.649,366.890 23.542,356.400 20.113 C 353.220 19.074,106.850 18.325,60.000 19.212 M180.758 36.639 C 182.948 37.933,183.965 45.710,182.373 49.000 C 181.533 50.736,176.984 51.021,175.400 49.436 C 174.159 48.196,173.892 40.943,175.007 38.786 C 176.125 36.625,178.949 35.570,180.758 36.639 M98.615 36.981 C 101.010 37.981,100.979 37.673,101.117 62.050 C 101.263 87.918,101.639 85.753,97.071 85.342 C 91.419 84.834,91.840 86.854,92.081 61.392 L 92.270 41.293 93.235 39.346 C 94.609 36.576,96.088 35.925,98.615 36.981 M58.956 38.037 C 62.907 41.472,61.141 46.790,56.047 46.797 C 51.379 46.804,49.868 40.071,53.949 37.451 C 55.325 36.568,57.569 36.831,58.956 38.037 M138.989 37.761 C 140.933 38.769,141.212 39.620,141.650 45.894 C 142.152 53.073,141.725 83.147,141.110 83.900 C 140.457 84.700,133.756 84.584,133.443 83.767 C 133.309 83.419,133.200 73.544,133.200 61.821 L 133.200 40.508 134.091 39.354 C 135.846 37.079,136.971 36.714,138.989 37.761 M239.881 37.650 C 242.340 38.638,243.105 39.069,245.691 40.922 C 253.320 46.390,255.789 58.376,250.890 66.169 C 249.274 68.738,246.900 70.572,242.600 72.573 C 241.720 72.983,240.679 73.477,240.286 73.671 C 239.087 74.265,231.420 74.107,229.515 73.450 C 225.608 72.103,220.193 67.717,218.756 64.736 C 218.402 64.001,217.862 62.877,217.556 62.238 C 216.019 59.025,217.070 49.358,219.387 45.400 C 221.006 42.634,225.383 39.644,229.600 38.424 C 230.590 38.137,231.850 37.759,232.400 37.583 C 233.913 37.099,238.616 37.141,239.881 37.650 M293.881 37.649 C 299.448 39.881,305.600 45.578,305.600 48.501 C 305.600 48.797,305.767 49.211,305.972 49.420 C 306.177 49.629,306.627 51.026,306.972 52.525 C 310.978 69.911,289.462 81.400,276.087 69.016 C 268.888 62.351,268.573 49.047,275.462 42.645 C 276.880 41.328,283.535 38.010,284.836 37.972 C 285.366 37.956,286.160 37.789,286.600 37.600 C 287.773 37.096,292.584 37.128,293.881 37.649 M346.480 37.752 C 361.365 41.632,366.767 62.285,354.853 69.761 C 341.909 77.884,329.303 73.713,325.767 60.139 C 322.358 47.050,333.976 34.493,346.480 37.752 M232.494 46.767 C 226.804 48.225,223.923 55.396,226.786 60.971 C 231.091 69.351,244.385 66.317,245.067 56.800 C 245.575 49.708,239.604 44.943,232.494 46.767 M286.800 46.690 C 282.651 47.339,278.517 53.368,279.415 57.462 C 282.091 69.655,298.800 68.223,298.800 55.800 C 298.800 49.266,293.938 45.575,286.800 46.690 M341.400 46.674 C 337.245 47.613,334.384 51.380,334.065 56.331 C 333.966 57.882,334.077 59.037,334.351 59.311 C 334.598 59.558,334.803 60.129,334.806 60.580 C 334.830 63.657,341.087 66.693,345.099 65.574 C 356.472 62.403,352.885 44.078,341.400 46.674 M182.679 52.248 C 190.782 52.567,191.619 53.235,191.587 59.360 C 191.565 63.652,190.687 63.976,179.033 63.990 C 165.826 64.006,164.245 63.454,164.330 58.853 C 164.438 53.014,166.147 51.480,172.200 51.788 C 174.400 51.901,179.115 52.107,182.679 52.248 M59.150 58.174 C 61.137 59.202,61.354 61.319,61.096 77.176 C 60.888 90.006,60.924 91.182,61.534 91.341 C 61.900 91.436,63.046 91.735,64.080 92.004 C 66.900 92.737,67.359 93.461,67.381 97.208 C 67.413 102.646,67.692 102.567,52.000 101.583 C 41.857 100.947,41.600 100.834,41.600 97.026 C 41.600 92.837,42.781 91.614,47.100 91.331 C 52.079 91.004,51.601 91.773,51.595 84.092 C 51.592 80.412,51.802 73.530,52.063 68.800 L 52.537 60.200 53.897 58.900 C 55.425 57.439,57.243 57.188,59.150 58.174 M182.219 68.300 C 182.386 68.905,182.559 71.938,182.601 75.040 C 182.695 81.872,182.548 81.597,186.124 81.613 C 189.591 81.629,190.451 82.191,191.129 84.884 C 192.087 88.688,191.787 90.938,190.136 92.349 L 188.671 93.600 179.186 93.600 C 165.019 93.600,165.029 93.605,165.262 86.815 C 165.461 80.979,165.622 80.800,170.642 80.800 C 174.956 80.800,175.237 80.587,174.756 77.671 C 174.046 73.364,174.318 69.246,175.382 68.182 C 176.942 66.621,181.776 66.705,182.219 68.300 M148.048 85.262 C 151.207 86.208,152.334 92.513,149.912 95.689 L 148.824 97.116 143.112 97.395 C 132.626 97.909,126.212 97.569,125.241 96.449 C 123.747 94.723,123.849 89.800,125.443 86.717 L 126.021 85.600 133.710 85.560 C 137.940 85.538,141.850 85.376,142.400 85.200 C 143.905 84.718,146.321 84.744,148.048 85.262 M101.975 87.205 C 108.731 87.600,108.419 87.467,109.500 90.400 C 110.821 93.980,110.111 97.484,107.814 98.724 C 106.244 99.571,86.965 100.109,85.000 99.360 C 80.912 97.803,80.352 92.889,83.696 87.924 C 84.729 86.390,86.696 86.312,101.975 87.205 M348.384 88.287 C 356.060 91.781,359.332 96.711,359.344 104.800 C 359.357 113.028,356.708 116.828,348.000 121.075 C 333.524 128.134,317.774 105.805,328.947 94.062 C 334.324 88.411,342.996 85.835,348.384 88.287 M238.294 88.048 C 246.761 90.040,251.968 96.714,252.133 105.786 C 252.217 110.407,251.111 112.881,247.200 116.817 C 244.819 119.213,243.929 119.781,238.837 122.152 C 238.308 122.398,236.508 122.590,234.837 122.578 C 221.218 122.478,212.580 103.204,221.898 93.706 C 226.637 88.875,232.787 86.753,238.294 88.048 M292.372 88.048 C 305.611 92.204,310.727 107.467,301.801 116.182 C 295.386 122.445,288.888 124.212,282.800 121.349 C 272.325 116.423,268.437 101.095,275.750 93.562 C 280.100 89.081,287.666 86.571,292.372 88.048 M232.910 97.168 C 226.506 98.790,224.605 107.032,229.641 111.342 C 233.645 114.770,240.403 113.250,242.726 108.400 C 245.645 102.305,239.661 95.459,232.910 97.168 M286.262 97.383 C 281.503 99.080,279.220 106.302,282.195 110.246 C 287.355 117.086,297.832 112.431,297.102 103.623 C 296.726 99.091,290.892 95.733,286.262 97.383 M339.400 97.780 C 330.648 101.779,334.270 114.971,343.600 113.078 C 353.530 111.063,352.830 97.193,342.800 97.224 C 341.590 97.228,340.060 97.478,339.400 97.780 M183.036 99.000 C 183.505 100.872,182.952 117.701,182.375 119.080 C 180.835 122.763,175.976 122.000,174.826 117.894 C 174.124 115.386,174.389 99.574,175.149 98.660 C 176.169 97.434,182.713 97.716,183.036 99.000 M140.854 102.294 C 141.823 103.263,142.366 114.065,141.588 116.869 C 140.168 121.981,135.675 122.138,133.814 117.140 C 132.847 114.541,133.042 104.708,134.093 103.106 C 134.987 101.742,139.733 101.173,140.854 102.294 M99.813 104.580 L 101.200 105.159 101.198 111.080 C 101.195 119.496,100.435 121.600,97.403 121.600 C 94.012 121.600,92.400 118.497,92.400 111.972 C 92.400 104.739,94.701 102.444,99.813 104.580 M59.669 109.062 C 60.202 109.545,60.408 110.328,60.429 111.962 C 60.445 113.193,60.597 115.174,60.766 116.364 C 61.525 121.714,54.706 123.778,52.715 118.800 C 52.026 117.076,52.191 110.578,52.955 109.413 C 53.791 108.137,58.381 107.897,59.669 109.062 M67.405 142.802 C 68.527 143.229,68.551 145.004,67.454 146.361 C 67.013 146.907,66.742 219.817,67.092 244.059 L 67.228 253.519 68.865 255.378 C 69.765 256.401,71.394 257.690,72.485 258.243 L 74.470 259.249 74.258 273.324 C 74.142 281.066,73.870 293.790,73.653 301.600 C 73.437 309.410,73.246 326.601,73.230 339.803 C 73.212 354.401,73.044 364.348,72.803 365.190 C 69.115 378.050,43.300 377.928,37.034 365.020 C 36.494 363.909,35.962 362.460,35.851 361.800 C 35.740 361.140,35.431 359.790,35.165 358.800 C 33.895 354.080,34.295 144.745,35.577 143.463 C 36.441 142.599,65.295 142.000,67.405 142.802 M122.536 143.066 C 123.638 143.300,123.664 143.363,123.398 145.154 C 122.933 148.281,122.715 240.793,123.157 247.265 C 123.642 254.363,125.602 257.831,129.581 258.630 C 130.141 258.743,131.023 259.052,131.539 259.317 L 132.478 259.800 132.541 268.800 C 132.629 281.286,133.223 282.345,139.876 281.883 C 143.337 281.642,143.200 282.116,143.200 270.382 L 143.200 260.062 144.687 259.571 C 145.505 259.301,147.142 258.165,148.326 257.046 C 152.168 253.412,151.785 259.725,151.916 197.927 L 152.032 143.254 154.195 142.983 C 157.311 142.594,177.522 142.541,179.297 142.918 C 181.111 143.302,181.579 144.507,180.628 146.345 C 178.894 149.698,178.908 249.928,180.643 253.283 C 182.184 256.264,186.144 259.370,188.800 259.682 L 189.800 259.800 189.648 267.854 C 189.397 281.190,189.678 282.009,194.516 281.987 C 199.497 281.965,199.630 281.663,199.896 269.844 C 200.114 260.098,200.168 259.826,201.936 259.473 C 203.321 259.196,205.969 257.064,207.243 255.200 L 208.200 253.800 208.200 198.600 C 208.200 162.263,208.337 143.300,208.600 143.106 C 209.087 142.748,239.094 142.700,243.240 143.050 L 246.200 143.300 246.200 198.150 L 246.200 253.000 247.285 254.600 C 247.882 255.480,248.602 256.470,248.885 256.800 C 249.656 257.700,252.699 259.600,253.368 259.600 C 254.408 259.600,254.479 260.307,254.427 270.125 L 254.376 279.800 255.621 280.500 C 256.562 281.029,257.785 281.200,260.642 281.200 C 265.408 281.200,265.087 281.998,265.487 269.124 L 265.800 259.031 267.000 258.783 C 269.665 258.230,273.305 255.523,274.689 253.063 C 275.358 251.875,275.412 248.577,275.600 197.400 L 275.800 143.000 289.915 142.648 C 305.500 142.259,304.758 142.161,304.051 144.513 C 303.401 146.672,302.873 179.971,302.835 221.200 L 302.808 251.000 303.968 253.000 C 306.226 256.891,309.556 259.305,313.200 259.693 L 314.200 259.800 314.445 270.400 C 315.865 331.928,315.828 363.072,314.331 366.258 C 312.483 370.188,308.252 373.367,303.989 374.029 C 292.064 375.879,283.356 373.155,280.254 366.604 L 279.200 364.378 279.200 326.074 L 279.200 287.770 278.100 286.458 C 276.040 284.001,271.842 284.200,269.216 286.879 L 267.600 288.527 267.578 321.364 C 267.547 367.803,267.714 366.139,262.643 370.658 C 255.945 376.628,241.498 376.537,234.536 370.480 C 229.942 366.482,230.032 367.478,230.013 320.438 L 230.000 287.076 228.383 285.538 C 226.148 283.412,224.039 283.583,221.710 286.078 L 220.819 287.031 220.747 317.216 C 220.624 368.693,220.624 368.699,213.913 372.207 C 204.043 377.369,191.235 376.049,185.143 369.243 C 181.941 365.665,182.227 369.556,181.971 326.000 C 181.846 304.550,181.711 286.955,181.671 286.899 C 178.917 283.011,173.803 283.028,171.707 286.932 C 171.085 288.089,171.000 291.532,170.730 326.400 C 170.568 347.410,170.329 365.021,170.201 365.535 C 169.658 367.707,164.081 372.349,160.000 374.025 C 158.117 374.798,143.102 374.862,142.340 374.100 C 142.065 373.825,141.561 373.590,141.220 373.578 C 139.932 373.533,136.168 370.536,134.755 368.429 C 132.460 365.008,132.406 364.065,132.254 324.800 C 132.111 287.929,132.104 287.789,130.265 286.061 C 127.504 283.468,122.095 284.883,120.868 288.520 C 120.705 289.004,120.721 304.700,120.904 323.400 C 121.282 362.030,121.227 365.349,120.180 367.036 C 119.330 368.407,116.363 371.600,115.940 371.600 C 115.778 371.600,114.962 372.005,114.126 372.500 C 104.229 378.361,87.247 373.956,85.211 365.000 C 84.637 362.476,84.580 272.581,85.147 263.206 L 85.400 259.011 86.800 258.780 C 89.466 258.339,93.068 255.686,94.263 253.282 C 95.104 251.591,95.664 150.857,94.860 145.788 C 94.422 143.020,94.351 143.170,96.296 142.752 C 97.930 142.401,120.682 142.673,122.536 143.066 M366.575 143.160 C 367.057 143.939,366.826 359.542,366.341 361.504 C 362.945 375.249,336.430 380.173,329.021 368.433 C 327.218 365.577,327.135 363.784,326.715 318.800 C 326.496 295.370,326.239 272.322,326.144 267.582 L 325.971 258.964 327.603 258.046 C 329.814 256.804,330.727 255.780,331.849 253.289 L 332.800 251.177 332.799 225.689 C 332.797 198.985,332.160 147.272,331.801 144.705 L 331.592 143.210 346.296 143.100 C 354.383 143.039,362.204 142.947,363.676 142.895 C 365.148 142.843,366.453 142.962,366.575 143.160 " stroke="none" fill="#f47c7c" fill-rule="evenodd"></path><path id="path1" d="M45.100 7.475 C 44.715 7.576,44.400 7.825,44.400 8.029 C 44.400 8.233,43.770 8.400,43.000 8.400 C 42.230 8.400,41.600 8.580,41.600 8.800 C 41.600 9.020,40.880 9.200,40.000 9.200 C 38.844 9.200,38.400 9.367,38.400 9.800 C 38.400 10.221,37.975 10.400,36.976 10.400 C 36.129 10.400,35.653 10.562,35.800 10.800 C 35.940 11.026,35.611 11.200,35.043 11.200 C 34.491 11.200,33.896 11.435,33.720 11.723 C 33.544 12.011,32.500 12.658,31.400 13.160 C 30.300 13.663,29.007 14.522,28.526 15.069 C 28.046 15.616,27.406 16.099,27.104 16.144 C 26.802 16.188,26.126 16.624,25.602 17.112 C 25.078 17.600,24.503 18.000,24.325 18.000 C 24.146 18.000,24.000 18.270,24.000 18.600 C 24.000 18.973,23.622 19.200,23.000 19.200 C 22.393 19.200,22.000 19.428,22.000 19.781 C 22.000 20.100,21.370 20.973,20.600 21.721 C 19.830 22.469,19.200 23.468,19.200 23.940 C 19.200 24.438,18.947 24.800,18.600 24.800 C 18.270 24.800,18.000 25.004,18.000 25.253 C 18.000 25.502,17.670 25.997,17.267 26.353 C 16.864 26.709,16.193 27.540,15.776 28.200 C 15.360 28.860,14.790 29.544,14.510 29.720 C 14.229 29.896,14.000 30.380,14.000 30.796 C 14.000 31.212,13.820 31.664,13.600 31.800 C 13.380 31.936,13.200 32.566,13.200 33.200 C 13.200 33.834,13.020 34.464,12.800 34.600 C 12.580 34.736,12.400 35.627,12.400 36.581 C 12.400 37.753,12.206 38.389,11.800 38.545 C 11.368 38.710,11.200 39.387,11.200 40.964 C 11.200 42.168,11.020 43.264,10.800 43.400 C 10.575 43.539,10.400 45.454,10.400 47.775 C 10.400 50.947,10.262 52.017,9.803 52.398 C 8.896 53.150,8.897 328.803,9.804 330.546 C 10.302 331.502,10.400 334.220,10.400 347.022 C 10.400 356.811,10.545 362.442,10.800 362.600 C 11.020 362.736,11.200 363.472,11.200 364.236 C 11.200 365.102,11.426 365.712,11.800 365.855 C 12.191 366.005,12.400 366.628,12.400 367.643 C 12.400 368.499,12.580 369.200,12.800 369.200 C 13.020 369.200,13.200 369.830,13.200 370.600 C 13.200 371.370,13.380 372.000,13.600 372.000 C 13.820 372.000,14.000 372.270,14.000 372.600 C 14.000 372.930,14.270 373.200,14.600 373.200 C 15.019 373.200,15.200 373.622,15.200 374.600 C 15.200 375.370,15.380 376.000,15.600 376.000 C 15.820 376.000,16.000 376.450,16.000 377.000 C 16.000 377.622,16.227 378.000,16.600 378.000 C 16.933 378.000,17.200 378.356,17.200 378.800 C 17.200 379.240,17.380 379.600,17.600 379.600 C 17.820 379.600,18.000 379.870,18.000 380.200 C 18.000 380.530,18.270 380.800,18.600 380.800 C 18.940 380.800,19.200 381.159,19.200 381.627 C 19.200 382.530,21.610 385.022,22.871 385.423 C 23.305 385.560,23.572 385.762,23.463 385.870 C 23.057 386.277,26.191 389.600,26.981 389.600 C 27.321 389.600,27.600 389.780,27.600 390.000 C 27.600 390.220,27.766 390.400,27.969 390.400 C 28.450 390.400,30.800 392.750,30.800 393.231 C 30.800 393.434,31.430 393.600,32.200 393.600 C 32.970 393.600,33.600 393.780,33.600 394.000 C 33.600 394.220,34.050 394.400,34.600 394.400 C 35.150 394.400,35.600 394.545,35.600 394.723 C 35.600 395.077,38.388 396.400,39.134 396.400 C 39.390 396.400,39.600 396.580,39.600 396.800 C 39.600 397.020,40.230 397.200,41.000 397.200 C 41.978 397.200,42.400 397.381,42.400 397.800 C 42.400 398.197,42.797 398.400,43.576 398.400 C 44.223 398.400,44.863 398.579,44.999 398.798 C 45.341 399.352,333.600 399.355,333.600 398.801 C 333.600 398.541,338.177 398.400,346.600 398.400 C 357.889 398.400,359.600 398.321,359.600 397.800 C 359.600 397.427,359.978 397.200,360.600 397.200 C 361.150 397.200,361.600 397.020,361.600 396.800 C 361.600 396.580,361.949 396.400,362.376 396.400 C 362.803 396.400,363.264 396.220,363.400 396.000 C 363.536 395.780,364.078 395.600,364.605 395.600 C 365.132 395.600,366.014 395.150,366.564 394.600 C 367.114 394.050,367.932 393.600,368.382 393.600 C 368.842 393.600,369.200 393.338,369.200 393.000 C 369.200 392.627,369.578 392.400,370.200 392.400 C 370.750 392.400,371.200 392.220,371.200 392.000 C 371.200 391.780,371.470 391.600,371.800 391.600 C 372.130 391.600,372.400 391.330,372.400 391.000 C 372.400 390.459,372.875 390.222,373.700 390.353 C 373.865 390.379,374.000 390.220,374.000 390.000 C 374.000 389.780,374.240 389.600,374.532 389.600 C 374.825 389.600,375.306 389.150,375.600 388.600 C 375.936 387.972,376.482 387.600,377.068 387.600 C 377.580 387.600,378.000 387.420,378.000 387.200 C 378.000 386.980,378.270 386.800,378.600 386.800 C 378.930 386.800,379.200 386.605,379.200 386.367 C 379.200 386.128,379.830 385.321,380.600 384.574 C 381.370 383.826,382.000 383.012,382.000 382.765 C 382.000 382.517,382.450 381.961,383.000 381.529 C 383.576 381.075,384.000 380.330,384.000 379.771 C 384.000 379.237,384.180 378.800,384.400 378.800 C 384.620 378.800,384.800 378.519,384.800 378.176 C 384.800 377.833,384.981 377.665,385.203 377.802 C 385.424 377.939,385.708 377.724,385.832 377.325 C 385.957 376.926,386.225 376.287,386.429 375.905 C 386.633 375.523,386.800 374.778,386.800 374.248 C 386.800 373.719,387.070 373.182,387.400 373.055 C 387.730 372.929,388.000 372.470,388.000 372.036 C 388.000 371.602,388.180 371.136,388.400 371.000 C 388.620 370.864,388.800 370.403,388.800 369.976 C 388.800 369.549,388.980 369.200,389.200 369.200 C 389.422 369.200,389.600 368.133,389.600 366.800 C 389.600 364.933,389.733 364.400,390.200 364.400 C 390.686 364.400,390.800 363.756,390.800 361.000 C 390.800 359.000,390.965 357.600,391.200 357.600 C 391.466 357.600,391.600 306.267,391.600 204.400 C 391.600 102.533,391.466 51.200,391.200 51.200 C 390.965 51.200,390.800 49.800,390.800 47.800 C 390.800 45.044,390.686 44.400,390.200 44.400 C 389.870 44.400,389.600 44.130,389.600 43.800 C 389.600 43.470,389.780 43.200,390.000 43.200 C 390.220 43.200,390.400 42.840,390.400 42.400 C 390.400 41.960,390.220 41.600,390.000 41.600 C 389.780 41.600,389.600 40.880,389.600 40.000 C 389.600 39.120,389.420 38.400,389.200 38.400 C 388.980 38.400,388.800 38.040,388.800 37.600 C 388.800 37.160,388.634 36.800,388.432 36.800 C 388.229 36.800,387.945 36.258,387.799 35.597 C 387.654 34.935,387.370 34.495,387.167 34.620 C 386.965 34.745,386.800 34.387,386.800 33.824 C 386.800 33.261,386.620 32.800,386.400 32.800 C 386.180 32.800,386.000 32.350,386.000 31.800 C 386.000 31.178,385.773 30.800,385.400 30.800 C 385.070 30.800,384.800 30.530,384.800 30.200 C 384.800 29.870,384.620 29.600,384.400 29.600 C 384.180 29.600,384.000 29.338,384.000 29.018 C 384.000 28.698,383.550 27.986,383.000 27.436 C 382.450 26.886,382.000 26.089,382.000 25.665 C 382.000 25.221,381.648 24.801,381.170 24.676 C 380.714 24.557,380.243 24.086,380.124 23.630 C 380.004 23.173,379.748 22.800,379.553 22.800 C 379.359 22.800,379.200 22.536,379.200 22.214 C 379.200 21.334,376.943 19.200,376.013 19.200 C 375.566 19.200,375.200 18.960,375.200 18.668 C 375.200 18.375,374.770 17.905,374.244 17.624 C 373.718 17.342,373.058 16.682,372.776 16.156 C 372.495 15.630,371.945 15.200,371.553 15.200 C 371.162 15.200,370.356 14.750,369.762 14.200 C 369.169 13.650,368.432 13.200,368.124 13.200 C 367.817 13.200,367.080 12.750,366.487 12.200 C 365.893 11.650,365.012 11.200,364.528 11.200 C 364.043 11.200,363.536 11.020,363.400 10.800 C 363.264 10.580,362.533 10.400,361.776 10.400 C 360.820 10.400,360.400 10.217,360.400 9.800 C 360.400 9.427,360.022 9.200,359.400 9.200 C 358.850 9.200,358.400 9.020,358.400 8.800 C 358.400 8.569,357.144 8.400,355.433 8.400 C 353.416 8.400,352.413 8.240,352.300 7.900 C 352.137 7.411,46.953 6.989,45.100 7.475 M300.800 19.193 C 358.757 19.551,355.397 19.414,360.200 21.621 C 368.882 25.610,375.373 32.961,378.193 42.000 C 378.724 43.701,378.956 46.650,379.216 55.000 C 379.654 69.074,379.668 353.360,379.231 358.631 C 378.376 368.933,367.747 382.343,357.800 385.666 C 355.304 386.499,46.199 386.457,43.600 385.622 C 34.584 382.727,26.426 374.520,23.402 365.304 L 22.383 362.200 22.002 329.400 C 21.536 289.356,21.521 61.746,21.984 52.000 C 22.638 38.230,29.606 26.841,40.401 21.898 C 46.090 19.293,44.545 19.505,60.000 19.212 C 80.732 18.820,238.245 18.807,300.800 19.193 M177.107 36.824 C 174.861 38.010,174.400 39.265,174.400 44.198 C 174.400 49.773,174.958 50.500,179.096 50.318 C 182.575 50.166,182.943 49.547,182.977 43.800 C 183.015 37.155,181.005 34.765,177.107 36.824 M95.200 36.906 C 94.650 37.178,93.766 38.276,93.235 39.346 L 92.270 41.293 92.081 61.392 C 91.877 82.949,91.946 84.253,93.322 84.760 C 95.355 85.510,99.914 85.629,100.593 84.950 C 101.441 84.102,101.352 40.620,100.498 38.681 C 99.703 36.876,97.055 35.989,95.200 36.906 M53.949 37.451 C 49.868 40.071,51.379 46.804,56.047 46.797 C 57.986 46.794,59.840 45.801,60.659 44.324 C 62.802 40.461,57.585 35.117,53.949 37.451 M135.591 37.713 C 135.255 37.981,134.580 38.719,134.091 39.354 L 133.200 40.508 133.200 61.821 C 133.200 73.544,133.309 83.419,133.443 83.767 C 133.756 84.584,140.457 84.700,141.110 83.900 C 142.418 82.298,141.997 41.073,140.653 39.155 C 139.463 37.455,136.845 36.710,135.591 37.713 M232.400 37.583 C 231.850 37.759,230.590 38.137,229.600 38.424 C 225.383 39.644,221.006 42.634,219.387 45.400 C 217.070 49.358,216.019 59.025,217.556 62.238 C 217.862 62.877,218.402 64.001,218.756 64.736 C 220.193 67.717,225.608 72.103,229.515 73.450 C 231.420 74.107,239.087 74.265,240.286 73.671 C 240.679 73.477,241.720 72.983,242.600 72.573 C 244.748 71.573,248.446 69.265,249.252 68.420 C 253.958 63.487,254.693 53.718,250.878 46.800 C 249.180 43.721,248.466 42.911,245.691 40.922 C 243.105 39.069,242.340 38.638,239.881 37.650 C 238.616 37.141,233.913 37.099,232.400 37.583 M286.600 37.600 C 286.160 37.789,285.366 37.956,284.836 37.972 C 283.535 38.010,276.880 41.328,275.462 42.645 C 270.542 47.217,268.962 57.346,272.173 63.724 C 281.844 82.935,311.760 73.307,306.972 52.525 C 306.627 51.026,306.177 49.629,305.972 49.420 C 305.767 49.211,305.600 48.797,305.600 48.501 C 305.600 45.578,299.448 39.881,293.881 37.649 C 292.584 37.128,287.773 37.096,286.600 37.600 M339.039 37.834 C 328.516 40.701,323.083 49.832,325.767 60.139 C 329.303 73.713,341.909 77.884,354.853 69.761 C 369.935 60.297,356.458 33.088,339.039 37.834 M240.330 47.364 C 245.608 50.093,246.818 58.373,242.538 62.473 C 235.443 69.270,225.800 65.555,225.800 56.025 C 225.800 48.687,233.738 43.955,240.330 47.364 M294.252 47.450 C 299.345 49.567,300.422 57.793,296.242 62.651 C 288.474 71.679,274.802 61.018,281.101 50.844 C 283.634 46.753,289.150 45.329,294.252 47.450 M345.687 46.655 C 354.355 48.088,353.889 63.123,345.099 65.574 C 341.087 66.693,334.830 63.657,334.806 60.580 C 334.803 60.129,334.598 59.558,334.351 59.311 C 333.628 58.588,334.108 54.047,335.132 51.937 C 337.207 47.659,340.821 45.850,345.687 46.655 M167.102 52.204 C 164.440 53.706,163.138 60.845,165.237 62.428 C 168.151 64.626,189.394 64.670,191.056 62.483 C 191.702 61.632,191.757 57.387,191.145 55.560 C 190.169 52.647,189.871 52.531,182.679 52.248 C 179.115 52.107,174.400 51.901,172.200 51.788 C 169.044 51.627,167.968 51.715,167.102 52.204 M53.897 58.900 L 52.537 60.200 52.063 68.800 C 51.802 73.530,51.592 80.412,51.595 84.092 C 51.601 91.773,52.079 91.004,47.100 91.331 C 42.781 91.614,41.600 92.837,41.600 97.026 C 41.600 100.834,41.857 100.947,52.000 101.583 C 67.692 102.567,67.413 102.646,67.381 97.208 C 67.359 93.461,66.900 92.737,64.080 92.004 C 63.046 91.735,61.900 91.436,61.534 91.341 C 60.924 91.182,60.888 90.006,61.096 77.176 C 61.354 61.319,61.137 59.202,59.150 58.174 C 57.243 57.188,55.425 57.439,53.897 58.900 M175.382 68.182 C 174.318 69.246,174.046 73.364,174.756 77.671 C 175.237 80.587,174.956 80.800,170.642 80.800 C 165.622 80.800,165.461 80.979,165.262 86.815 C 165.029 93.605,165.019 93.600,179.186 93.600 L 188.671 93.600 190.136 92.349 C 191.787 90.938,192.087 88.688,191.129 84.884 C 190.451 82.191,189.591 81.629,186.124 81.613 C 182.548 81.597,182.695 81.872,182.601 75.040 C 182.492 67.057,182.555 67.200,179.138 67.200 C 176.726 67.200,176.236 67.328,175.382 68.182 M142.400 85.200 C 141.850 85.376,137.940 85.538,133.710 85.560 L 126.021 85.600 125.443 86.717 C 123.849 89.800,123.747 94.723,125.241 96.449 C 126.212 97.569,132.626 97.909,143.112 97.395 L 148.824 97.116 149.912 95.689 C 151.281 93.894,151.502 88.581,150.284 86.762 C 149.170 85.098,145.183 84.309,142.400 85.200 M85.910 86.705 C 84.833 86.808,84.220 87.145,83.696 87.924 C 80.352 92.889,80.912 97.803,85.000 99.360 C 86.965 100.109,106.244 99.571,107.814 98.724 C 110.587 97.227,110.938 92.356,108.567 88.283 C 108.064 87.419,90.932 86.226,85.910 86.705 M340.293 87.601 C 336.847 88.206,331.768 91.098,328.947 94.062 C 317.774 105.805,333.524 128.134,348.000 121.075 C 356.708 116.828,359.357 113.028,359.344 104.800 C 359.327 93.705,350.570 85.800,340.293 87.601 M229.600 88.672 C 219.938 92.571,215.973 100.488,219.015 109.806 C 221.922 118.712,232.318 125.187,238.837 122.152 C 243.929 119.781,244.819 119.213,247.200 116.817 C 253.086 110.892,253.911 103.740,249.580 96.166 C 245.607 89.218,236.609 85.843,229.600 88.672 M285.000 88.085 C 276.056 91.069,272.200 95.806,272.200 103.813 C 272.200 115.889,283.305 125.725,292.800 122.060 C 304.673 117.477,309.053 108.074,304.145 97.704 C 300.714 90.457,291.607 85.882,285.000 88.085 M239.318 98.100 C 246.081 101.881,244.167 111.804,236.436 113.041 C 231.101 113.894,226.800 110.394,226.800 105.200 C 226.800 98.704,233.551 94.875,239.318 98.100 M291.056 97.256 C 297.460 98.868,299.334 106.488,294.414 110.911 C 288.667 116.079,281.001 113.177,281.035 105.846 C 281.065 99.497,285.354 95.820,291.056 97.256 M346.646 97.965 C 351.088 99.982,352.145 106.593,348.605 110.214 C 342.474 116.486,333.335 112.499,334.594 104.101 C 335.415 98.627,341.398 95.582,346.646 97.965 M175.149 98.660 C 174.389 99.574,174.124 115.386,174.826 117.894 C 175.976 122.000,180.835 122.763,182.375 119.080 C 182.952 117.701,183.505 100.872,183.036 99.000 C 182.713 97.716,176.169 97.434,175.149 98.660 M136.293 101.875 C 133.822 102.161,133.424 103.189,133.261 109.721 C 133.068 117.433,134.359 120.800,137.509 120.800 C 141.329 120.800,142.930 114.747,141.581 105.409 C 141.055 101.771,140.485 101.390,136.293 101.875 M94.289 104.500 C 91.337 106.725,91.864 118.908,95.001 120.964 C 99.243 123.744,101.194 120.632,101.198 111.080 L 101.200 105.159 99.813 104.580 C 98.109 103.868,95.184 103.826,94.289 104.500 M52.955 109.413 C 52.191 110.578,52.026 117.076,52.715 118.800 C 54.706 123.778,61.525 121.714,60.766 116.364 C 60.597 115.174,60.445 113.193,60.429 111.962 C 60.390 108.938,59.763 108.400,56.278 108.400 C 53.873 108.400,53.555 108.497,52.955 109.413 M41.318 142.770 C 38.179 142.909,35.850 143.190,35.577 143.463 C 34.295 144.745,33.895 354.080,35.165 358.800 C 35.431 359.790,35.740 361.140,35.851 361.800 C 38.393 376.908,68.646 379.684,72.803 365.190 C 73.044 364.348,73.212 354.401,73.230 339.803 C 73.246 326.601,73.437 309.410,73.653 301.600 C 73.870 293.790,74.142 281.066,74.258 273.324 L 74.470 259.249 72.485 258.243 C 71.394 257.690,69.765 256.401,68.865 255.378 L 67.228 253.519 67.092 244.059 C 66.742 219.817,67.013 146.907,67.454 146.361 C 68.551 145.004,68.527 143.229,67.405 142.802 C 66.291 142.378,50.625 142.359,41.318 142.770 M96.296 142.752 C 94.351 143.170,94.422 143.020,94.860 145.788 C 95.664 150.857,95.104 251.591,94.263 253.282 C 93.068 255.686,89.466 258.339,86.800 258.780 L 85.400 259.011 85.147 263.206 C 84.580 272.581,84.637 362.476,85.211 365.000 C 87.247 373.956,104.229 378.361,114.126 372.500 C 114.962 372.005,115.778 371.600,115.940 371.600 C 116.363 371.600,119.330 368.407,120.180 367.036 C 121.227 365.349,121.282 362.030,120.904 323.400 C 120.721 304.700,120.705 289.004,120.868 288.520 C 122.095 284.883,127.504 283.468,130.265 286.061 C 132.104 287.789,132.111 287.929,132.254 324.800 C 132.406 364.065,132.460 365.008,134.755 368.429 C 136.168 370.536,139.932 373.533,141.220 373.578 C 141.561 373.590,142.065 373.825,142.340 374.100 C 143.102 374.862,158.117 374.798,160.000 374.025 C 164.081 372.349,169.658 367.707,170.201 365.535 C 170.329 365.021,170.568 347.410,170.730 326.400 C 171.000 291.532,171.085 288.089,171.707 286.932 C 173.803 283.028,178.917 283.011,181.671 286.899 C 181.711 286.955,181.846 304.550,181.971 326.000 C 182.227 369.556,181.941 365.665,185.143 369.243 C 191.235 376.049,204.043 377.369,213.913 372.207 C 220.624 368.699,220.624 368.693,220.747 317.216 L 220.819 287.031 221.710 286.078 C 224.039 283.583,226.148 283.412,228.383 285.538 L 230.000 287.076 230.013 320.438 C 230.032 367.478,229.942 366.482,234.536 370.480 C 238.771 374.163,242.914 375.127,252.451 374.646 C 257.795 374.377,259.000 373.906,262.643 370.658 C 267.714 366.139,267.547 367.803,267.578 321.364 L 267.600 288.527 269.216 286.879 C 271.842 284.200,276.040 284.001,278.100 286.458 L 279.200 287.770 279.200 326.074 L 279.200 364.378 280.254 366.604 C 283.356 373.155,292.064 375.879,303.989 374.029 C 308.252 373.367,312.483 370.188,314.331 366.258 C 315.828 363.072,315.865 331.928,314.445 270.400 L 314.200 259.800 313.200 259.693 C 309.556 259.305,306.226 256.891,303.968 253.000 L 302.808 251.000 302.835 221.200 C 302.873 179.971,303.401 146.672,304.051 144.513 C 304.758 142.161,305.500 142.259,289.915 142.648 L 275.800 143.000 275.600 197.400 C 275.412 248.577,275.358 251.875,274.689 253.063 C 273.305 255.523,269.665 258.230,267.000 258.783 L 265.800 259.031 265.487 269.124 C 265.087 281.998,265.408 281.200,260.642 281.200 C 257.785 281.200,256.562 281.029,255.621 280.500 L 254.376 279.800 254.427 270.125 C 254.479 260.307,254.408 259.600,253.368 259.600 C 252.699 259.600,249.656 257.700,248.885 256.800 C 248.602 256.470,247.882 255.480,247.285 254.600 L 246.200 253.000 246.200 198.150 L 246.200 143.300 243.240 143.050 C 239.094 142.700,209.087 142.748,208.600 143.106 C 208.337 143.300,208.200 162.263,208.200 198.600 L 208.200 253.800 207.243 255.200 C 205.969 257.064,203.321 259.196,201.936 259.473 C 200.168 259.826,200.114 260.098,199.896 269.844 C 199.630 281.663,199.497 281.965,194.516 281.987 C 189.678 282.009,189.397 281.190,189.648 267.854 L 189.800 259.800 188.800 259.682 C 186.144 259.370,182.184 256.264,180.643 253.283 C 178.908 249.928,178.894 149.698,180.628 146.345 C 181.579 144.507,181.111 143.302,179.297 142.918 C 177.522 142.541,157.311 142.594,154.195 142.983 L 152.032 143.254 151.916 197.927 C 151.785 259.725,152.168 253.412,148.326 257.046 C 147.142 258.165,145.505 259.301,144.687 259.571 L 143.200 260.062 143.200 270.382 C 143.200 282.116,143.337 281.642,139.876 281.883 C 133.223 282.345,132.629 281.286,132.541 268.800 L 132.478 259.800 131.539 259.317 C 131.023 259.052,130.141 258.743,129.581 258.630 C 125.602 257.831,123.642 254.363,123.157 247.265 C 122.715 240.793,122.933 148.281,123.398 145.154 C 123.664 143.363,123.638 143.300,122.536 143.066 C 120.682 142.673,97.930 142.401,96.296 142.752 M346.296 143.100 L 331.592 143.210 331.801 144.705 C 332.160 147.272,332.797 198.985,332.799 225.689 L 332.800 251.177 331.849 253.289 C 330.727 255.780,329.814 256.804,327.603 258.046 L 325.971 258.964 326.144 267.582 C 326.239 272.322,326.496 295.370,326.715 318.800 C 327.135 363.784,327.218 365.577,329.021 368.433 C 336.430 380.173,362.945 375.249,366.341 361.504 C 366.826 359.542,367.057 143.939,366.575 143.160 C 366.453 142.962,365.148 142.843,363.676 142.895 C 362.204 142.947,354.383 143.039,346.296 143.100 " stroke="none" fill="#e4e3e3" fill-rule="evenodd"></path></g></svg>